<mxfile host="app.diagrams.net" agent="Mozilla/5.0 (Windows NT 10.0; Win64; x64) AppleWebKit/537.36 (KHTML, like Gecko) Chrome/133.0.0.0 Safari/537.36 Edg/133.0.0.0" version="26.0.16">
  <diagram name="Page-1" id="2bF3EJghnjqhQ7Mc7LkW">
    <mxGraphModel dx="1213" dy="708" grid="1" gridSize="10" guides="1" tooltips="1" connect="1" arrows="1" fold="1" page="1" pageScale="1" pageWidth="850" pageHeight="1100" background="#CCFFFF" math="0" shadow="1" adaptiveColors="auto">
      <root>
        <mxCell id="0" />
        <mxCell id="1" parent="0" />
        <mxCell id="v5CCzjuFt8h26EaklR4Z-4" value="Customer" style="shape=umlActor;verticalLabelPosition=bottom;verticalAlign=top;html=1;outlineConnect=0;rounded=1;labelBackgroundColor=none;fillColor=#FAE5C7;strokeColor=#0F8B8D;fontColor=#143642;textShadow=1;fontFamily=Verdana;" vertex="1" parent="1">
          <mxGeometry x="30" y="221" width="30" height="60" as="geometry" />
        </mxCell>
        <mxCell id="v5CCzjuFt8h26EaklR4Z-5" value="Admin/Seller" style="shape=umlActor;verticalLabelPosition=bottom;verticalAlign=top;html=1;outlineConnect=0;rounded=1;labelBackgroundColor=none;fillColor=#FAE5C7;strokeColor=#0F8B8D;fontColor=#143642;textShadow=1;fontFamily=Verdana;" vertex="1" parent="1">
          <mxGeometry x="680" y="330" width="30" height="60" as="geometry" />
        </mxCell>
        <mxCell id="v5CCzjuFt8h26EaklR4Z-11" value="Login" style="ellipse;whiteSpace=wrap;html=1;strokeColor=#0F8B8D;align=center;verticalAlign=middle;fontFamily=Verdana;fontSize=12;fontColor=#143642;fillColor=#FAE5C7;fixedWidth=0;rounded=1;labelBackgroundColor=none;textShadow=1;" vertex="1" parent="1">
          <mxGeometry x="187" y="40" width="100" height="80" as="geometry" />
        </mxCell>
        <mxCell id="v5CCzjuFt8h26EaklR4Z-17" value="&lt;font&gt;Search Products&lt;/font&gt;" style="ellipse;whiteSpace=wrap;html=1;strokeColor=#0F8B8D;align=center;verticalAlign=middle;fontFamily=Verdana;fontSize=12;fontColor=#143642;fillColor=#FAE5C7;fixedWidth=0;rounded=1;labelBackgroundColor=none;textShadow=1;" vertex="1" parent="1">
          <mxGeometry x="187" y="130" width="100" height="80" as="geometry" />
        </mxCell>
        <mxCell id="v5CCzjuFt8h26EaklR4Z-18" value="Add to Cart" style="ellipse;whiteSpace=wrap;html=1;strokeColor=#0F8B8D;align=center;verticalAlign=middle;fontFamily=Verdana;fontSize=12;fontColor=#143642;fillColor=#FAE5C7;fixedWidth=0;rounded=1;labelBackgroundColor=none;textShadow=1;" vertex="1" parent="1">
          <mxGeometry x="187" y="221" width="100" height="80" as="geometry" />
        </mxCell>
        <mxCell id="v5CCzjuFt8h26EaklR4Z-20" value="Place Order&lt;span style=&quot;text-wrap-mode: nowrap; color: rgba(0, 0, 0, 0); font-size: 0px; text-align: start;&quot;&gt;%3CmxGraphModel%3E%3Croot%3E%3CmxCell%20id%3D%220%22%2F%3E%3CmxCell%20id%3D%221%22%20parent%3D%220%22%2F%3E%3CmxCell%20id%3D%222%22%20value%3D%22Add%20to%20Cart%22%20style%3D%22ellipse%3BwhiteSpace%3Dwrap%3Bhtml%3D1%3B%22%20vertex%3D%221%22%20parent%3D%221%22%3E%3CmxGeometry%20x%3D%22190%22%20y%3D%22230%22%20width%3D%2250%22%20height%3D%2230%22%20as%3D%22geometry%22%2F%3E%3C%2FmxCell%3E%3C%2Froot%3E%3C%2FmxGraphModel%3E&lt;/span&gt;" style="ellipse;whiteSpace=wrap;html=1;strokeColor=#0F8B8D;align=center;verticalAlign=middle;fontFamily=Verdana;fontSize=12;fontColor=#143642;fillColor=#FAE5C7;fixedWidth=0;rounded=1;labelBackgroundColor=none;textShadow=1;" vertex="1" parent="1">
          <mxGeometry x="187" y="310" width="100" height="80" as="geometry" />
        </mxCell>
        <mxCell id="v5CCzjuFt8h26EaklR4Z-21" value="Process Payment" style="ellipse;whiteSpace=wrap;html=1;strokeColor=#0F8B8D;align=center;verticalAlign=middle;fontFamily=Verdana;fontSize=12;fontColor=#143642;fillColor=#FAE5C7;fixedWidth=0;rounded=1;labelBackgroundColor=none;textShadow=1;" vertex="1" parent="1">
          <mxGeometry x="187" y="400" width="100" height="80" as="geometry" />
        </mxCell>
        <mxCell id="v5CCzjuFt8h26EaklR4Z-22" value="View Order&lt;div&gt;&amp;nbsp;Status&lt;/div&gt;" style="ellipse;whiteSpace=wrap;html=1;strokeColor=#0F8B8D;align=center;verticalAlign=middle;fontFamily=Verdana;fontSize=12;fontColor=#143642;fillColor=#FAE5C7;fixedWidth=0;rounded=1;labelBackgroundColor=none;textShadow=1;" vertex="1" parent="1">
          <mxGeometry x="187" y="490" width="100" height="80" as="geometry" />
        </mxCell>
        <mxCell id="v5CCzjuFt8h26EaklR4Z-23" value="Edit Profile" style="ellipse;whiteSpace=wrap;html=1;strokeColor=#0F8B8D;align=center;verticalAlign=middle;fontFamily=Verdana;fontSize=12;fontColor=#143642;fillColor=#FAE5C7;fixedWidth=0;rounded=1;labelBackgroundColor=none;textShadow=1;" vertex="1" parent="1">
          <mxGeometry x="187" y="580" width="100" height="80" as="geometry" />
        </mxCell>
        <mxCell id="v5CCzjuFt8h26EaklR4Z-24" value="Manage Products" style="ellipse;whiteSpace=wrap;html=1;strokeColor=#0F8B8D;align=center;verticalAlign=middle;fontFamily=Verdana;fontSize=12;fontColor=#143642;fillColor=#FAE5C7;fixedWidth=0;rounded=1;labelBackgroundColor=none;textShadow=1;" vertex="1" parent="1">
          <mxGeometry x="499" y="40" width="100" height="80" as="geometry" />
        </mxCell>
        <mxCell id="v5CCzjuFt8h26EaklR4Z-25" value="Manage Orders" style="ellipse;whiteSpace=wrap;html=1;strokeColor=#0F8B8D;align=center;verticalAlign=middle;fontFamily=Verdana;fontSize=12;fontColor=#143642;fillColor=#FAE5C7;fixedWidth=0;rounded=1;labelBackgroundColor=none;textShadow=1;" vertex="1" parent="1">
          <mxGeometry x="499" y="130" width="100" height="80" as="geometry" />
        </mxCell>
        <mxCell id="v5CCzjuFt8h26EaklR4Z-26" value="Manage Users" style="ellipse;whiteSpace=wrap;html=1;strokeColor=#0F8B8D;align=center;verticalAlign=middle;fontFamily=Verdana;fontSize=12;fontColor=#143642;fillColor=#FAE5C7;fixedWidth=0;rounded=1;labelBackgroundColor=none;textShadow=1;" vertex="1" parent="1">
          <mxGeometry x="499" y="221" width="100" height="80" as="geometry" />
        </mxCell>
        <mxCell id="v5CCzjuFt8h26EaklR4Z-28" value="Verify Payment Status" style="ellipse;whiteSpace=wrap;html=1;strokeColor=#0F8B8D;align=center;verticalAlign=middle;fontFamily=Verdana;fontSize=12;fontColor=#143642;fillColor=#FAE5C7;fixedWidth=0;rounded=1;labelBackgroundColor=none;textShadow=1;" vertex="1" parent="1">
          <mxGeometry x="499" y="400" width="100" height="80" as="geometry" />
        </mxCell>
        <mxCell id="v5CCzjuFt8h26EaklR4Z-31" value="Dokaan Nepal" style="swimlane;whiteSpace=wrap;html=1;strokeColor=#0F8B8D;align=center;verticalAlign=middle;fontFamily=Verdana;fontSize=12;fontColor=#143642;fillColor=#FAE5C7;rounded=1;labelBackgroundColor=none;textShadow=1;" vertex="1" parent="1">
          <mxGeometry x="147" width="490" height="680" as="geometry" />
        </mxCell>
        <mxCell id="v5CCzjuFt8h26EaklR4Z-57" value="COD" style="ellipse;whiteSpace=wrap;html=1;strokeColor=#0F8B8D;align=center;verticalAlign=middle;fontFamily=Verdana;fontSize=12;fontColor=#143642;fillColor=#FAE5C7;fixedWidth=0;rounded=1;labelBackgroundColor=none;textShadow=1;" vertex="1" parent="v5CCzjuFt8h26EaklR4Z-31">
          <mxGeometry x="163" y="385" width="67" height="50" as="geometry" />
        </mxCell>
        <mxCell id="v5CCzjuFt8h26EaklR4Z-58" value="ONLINE" style="ellipse;whiteSpace=wrap;html=1;strokeColor=#0F8B8D;align=center;verticalAlign=middle;fontFamily=Verdana;fontSize=12;fontColor=#143642;fillColor=#FAE5C7;fixedWidth=0;rounded=1;labelBackgroundColor=none;textShadow=1;" vertex="1" parent="v5CCzjuFt8h26EaklR4Z-31">
          <mxGeometry x="163" y="445" width="67" height="50" as="geometry" />
        </mxCell>
        <mxCell id="v5CCzjuFt8h26EaklR4Z-59" value="" style="triangle;whiteSpace=wrap;html=1;strokeColor=#0F8B8D;align=center;verticalAlign=middle;fontFamily=Verdana;fontSize=12;fontColor=#143642;fillColor=#FAE5C7;rounded=1;labelBackgroundColor=none;textShadow=1;" vertex="1" parent="v5CCzjuFt8h26EaklR4Z-31">
          <mxGeometry x="140" y="430" width="10" height="20" as="geometry" />
        </mxCell>
        <mxCell id="v5CCzjuFt8h26EaklR4Z-62" value="" style="endArrow=none;html=1;rounded=1;fontFamily=Verdana;fontSize=12;fontColor=default;exitX=1;exitY=0.5;exitDx=0;exitDy=0;entryX=0;entryY=1;entryDx=0;entryDy=0;labelBackgroundColor=none;strokeColor=#A8201A;textShadow=1;" edge="1" parent="v5CCzjuFt8h26EaklR4Z-31" source="v5CCzjuFt8h26EaklR4Z-59" target="v5CCzjuFt8h26EaklR4Z-57">
          <mxGeometry width="50" height="50" relative="1" as="geometry">
            <mxPoint x="253" y="390" as="sourcePoint" />
            <mxPoint x="303" y="340" as="targetPoint" />
          </mxGeometry>
        </mxCell>
        <mxCell id="v5CCzjuFt8h26EaklR4Z-63" value="" style="endArrow=none;html=1;rounded=1;fontFamily=Verdana;fontSize=12;fontColor=default;exitX=1;exitY=0.5;exitDx=0;exitDy=0;labelBackgroundColor=none;strokeColor=#A8201A;textShadow=1;" edge="1" parent="v5CCzjuFt8h26EaklR4Z-31" source="v5CCzjuFt8h26EaklR4Z-59" target="v5CCzjuFt8h26EaklR4Z-58">
          <mxGeometry width="50" height="50" relative="1" as="geometry">
            <mxPoint x="153" y="440" as="sourcePoint" />
            <mxPoint x="303" y="340" as="targetPoint" />
          </mxGeometry>
        </mxCell>
        <mxCell id="v5CCzjuFt8h26EaklR4Z-41" value="" style="endArrow=none;html=1;rounded=1;fontFamily=Verdana;fontSize=12;fontColor=default;exitX=1;exitY=0.3333333333333333;exitDx=0;exitDy=0;exitPerimeter=0;labelBackgroundColor=none;strokeColor=#A8201A;textShadow=1;" edge="1" parent="1" source="v5CCzjuFt8h26EaklR4Z-4" target="v5CCzjuFt8h26EaklR4Z-11">
          <mxGeometry width="50" height="50" relative="1" as="geometry">
            <mxPoint x="70" y="240" as="sourcePoint" />
            <mxPoint x="100" y="220" as="targetPoint" />
          </mxGeometry>
        </mxCell>
        <mxCell id="v5CCzjuFt8h26EaklR4Z-46" value="" style="endArrow=none;html=1;rounded=1;fontFamily=Verdana;fontSize=12;fontColor=default;exitX=1;exitY=0.3333333333333333;exitDx=0;exitDy=0;exitPerimeter=0;labelBackgroundColor=none;strokeColor=#A8201A;textShadow=1;" edge="1" parent="1" source="v5CCzjuFt8h26EaklR4Z-4" target="v5CCzjuFt8h26EaklR4Z-17">
          <mxGeometry width="50" height="50" relative="1" as="geometry">
            <mxPoint x="60" y="276" as="sourcePoint" />
            <mxPoint x="110" y="226" as="targetPoint" />
          </mxGeometry>
        </mxCell>
        <mxCell id="v5CCzjuFt8h26EaklR4Z-47" value="" style="endArrow=none;html=1;rounded=1;fontFamily=Verdana;fontSize=12;fontColor=default;entryX=0;entryY=0.5;entryDx=0;entryDy=0;labelBackgroundColor=none;strokeColor=#A8201A;textShadow=1;" edge="1" parent="1" target="v5CCzjuFt8h26EaklR4Z-18">
          <mxGeometry width="50" height="50" relative="1" as="geometry">
            <mxPoint x="60" y="240" as="sourcePoint" />
            <mxPoint x="450" y="250" as="targetPoint" />
          </mxGeometry>
        </mxCell>
        <mxCell id="v5CCzjuFt8h26EaklR4Z-48" value="" style="endArrow=none;html=1;rounded=1;fontFamily=Verdana;fontSize=12;fontColor=default;exitX=1;exitY=0.3333333333333333;exitDx=0;exitDy=0;exitPerimeter=0;labelBackgroundColor=none;strokeColor=#A8201A;textShadow=1;" edge="1" parent="1" source="v5CCzjuFt8h26EaklR4Z-4" target="v5CCzjuFt8h26EaklR4Z-20">
          <mxGeometry width="50" height="50" relative="1" as="geometry">
            <mxPoint x="400" y="300" as="sourcePoint" />
            <mxPoint x="450" y="250" as="targetPoint" />
          </mxGeometry>
        </mxCell>
        <mxCell id="v5CCzjuFt8h26EaklR4Z-49" value="" style="endArrow=none;html=1;rounded=1;fontFamily=Verdana;fontSize=12;fontColor=default;exitX=1;exitY=0.3333333333333333;exitDx=0;exitDy=0;exitPerimeter=0;entryX=0.1;entryY=0.254;entryDx=0;entryDy=0;entryPerimeter=0;labelBackgroundColor=none;strokeColor=#A8201A;textShadow=1;" edge="1" parent="1" source="v5CCzjuFt8h26EaklR4Z-4" target="v5CCzjuFt8h26EaklR4Z-21">
          <mxGeometry width="50" height="50" relative="1" as="geometry">
            <mxPoint x="400" y="300" as="sourcePoint" />
            <mxPoint x="450" y="250" as="targetPoint" />
          </mxGeometry>
        </mxCell>
        <mxCell id="v5CCzjuFt8h26EaklR4Z-50" value="" style="endArrow=none;html=1;rounded=1;fontFamily=Verdana;fontSize=12;fontColor=default;entryX=0;entryY=0.5;entryDx=0;entryDy=0;labelBackgroundColor=none;strokeColor=#A8201A;textShadow=1;" edge="1" parent="1" target="v5CCzjuFt8h26EaklR4Z-22">
          <mxGeometry width="50" height="50" relative="1" as="geometry">
            <mxPoint x="60" y="240" as="sourcePoint" />
            <mxPoint x="450" y="250" as="targetPoint" />
          </mxGeometry>
        </mxCell>
        <mxCell id="v5CCzjuFt8h26EaklR4Z-51" value="" style="endArrow=none;html=1;rounded=1;fontFamily=Verdana;fontSize=12;fontColor=default;entryX=0;entryY=0.5;entryDx=0;entryDy=0;labelBackgroundColor=none;strokeColor=#A8201A;textShadow=1;" edge="1" parent="1" target="v5CCzjuFt8h26EaklR4Z-23">
          <mxGeometry width="50" height="50" relative="1" as="geometry">
            <mxPoint x="60" y="240" as="sourcePoint" />
            <mxPoint x="450" y="370" as="targetPoint" />
          </mxGeometry>
        </mxCell>
        <mxCell id="v5CCzjuFt8h26EaklR4Z-52" value="" style="endArrow=none;html=1;rounded=1;fontFamily=Verdana;fontSize=12;fontColor=default;exitX=0;exitY=0.3333333333333333;exitDx=0;exitDy=0;exitPerimeter=0;entryX=1.01;entryY=0.625;entryDx=0;entryDy=0;entryPerimeter=0;labelBackgroundColor=none;strokeColor=#A8201A;textShadow=1;" edge="1" parent="1" source="v5CCzjuFt8h26EaklR4Z-5" target="v5CCzjuFt8h26EaklR4Z-24">
          <mxGeometry width="50" height="50" relative="1" as="geometry">
            <mxPoint x="400" y="230" as="sourcePoint" />
            <mxPoint x="450" y="180" as="targetPoint" />
          </mxGeometry>
        </mxCell>
        <mxCell id="v5CCzjuFt8h26EaklR4Z-53" value="" style="endArrow=none;html=1;rounded=1;fontFamily=Verdana;fontSize=12;fontColor=default;exitX=0;exitY=0.3333333333333333;exitDx=0;exitDy=0;exitPerimeter=0;entryX=1;entryY=0.663;entryDx=0;entryDy=0;entryPerimeter=0;labelBackgroundColor=none;strokeColor=#A8201A;textShadow=1;" edge="1" parent="1" source="v5CCzjuFt8h26EaklR4Z-5" target="v5CCzjuFt8h26EaklR4Z-25">
          <mxGeometry width="50" height="50" relative="1" as="geometry">
            <mxPoint x="400" y="230" as="sourcePoint" />
            <mxPoint x="450" y="180" as="targetPoint" />
          </mxGeometry>
        </mxCell>
        <mxCell id="v5CCzjuFt8h26EaklR4Z-54" value="" style="endArrow=none;html=1;rounded=1;fontFamily=Verdana;fontSize=12;fontColor=default;exitX=0;exitY=0.3333333333333333;exitDx=0;exitDy=0;exitPerimeter=0;labelBackgroundColor=none;strokeColor=#A8201A;textShadow=1;" edge="1" parent="1" source="v5CCzjuFt8h26EaklR4Z-5" target="v5CCzjuFt8h26EaklR4Z-26">
          <mxGeometry width="50" height="50" relative="1" as="geometry">
            <mxPoint x="400" y="230" as="sourcePoint" />
            <mxPoint x="450" y="180" as="targetPoint" />
          </mxGeometry>
        </mxCell>
        <mxCell id="v5CCzjuFt8h26EaklR4Z-56" value="" style="endArrow=none;html=1;rounded=1;fontFamily=Verdana;fontSize=12;fontColor=default;entryX=0;entryY=0.3333333333333333;entryDx=0;entryDy=0;entryPerimeter=0;labelBackgroundColor=none;strokeColor=#A8201A;textShadow=1;" edge="1" parent="1" target="v5CCzjuFt8h26EaklR4Z-5">
          <mxGeometry width="50" height="50" relative="1" as="geometry">
            <mxPoint x="600" y="430" as="sourcePoint" />
            <mxPoint x="450" y="180" as="targetPoint" />
          </mxGeometry>
        </mxCell>
        <mxCell id="v5CCzjuFt8h26EaklR4Z-68" value="Payment System&lt;div&gt;&lt;br&gt;&lt;/div&gt;" style="shape=umlActor;verticalLabelPosition=bottom;verticalAlign=top;html=1;outlineConnect=0;rounded=1;labelBackgroundColor=none;fillColor=#FAE5C7;strokeColor=#0F8B8D;fontColor=#143642;textShadow=1;fontFamily=Verdana;" vertex="1" parent="1">
          <mxGeometry x="680" y="550" width="30" height="60" as="geometry" />
        </mxCell>
        <mxCell id="v5CCzjuFt8h26EaklR4Z-69" value="" style="endArrow=none;html=1;rounded=1;fontFamily=Verdana;fontSize=12;fontColor=default;exitX=0.97;exitY=0.653;exitDx=0;exitDy=0;exitPerimeter=0;entryX=0;entryY=0.3333333333333333;entryDx=0;entryDy=0;entryPerimeter=0;labelBackgroundColor=none;strokeColor=#A8201A;textShadow=1;" edge="1" parent="1" source="v5CCzjuFt8h26EaklR4Z-58" target="v5CCzjuFt8h26EaklR4Z-68">
          <mxGeometry width="50" height="50" relative="1" as="geometry">
            <mxPoint x="400" y="390" as="sourcePoint" />
            <mxPoint x="450" y="340" as="targetPoint" />
          </mxGeometry>
        </mxCell>
        <mxCell id="v5CCzjuFt8h26EaklR4Z-70" value="" style="endArrow=none;html=1;rounded=1;fontFamily=Verdana;fontSize=12;fontColor=default;exitX=0.97;exitY=0.293;exitDx=0;exitDy=0;exitPerimeter=0;labelBackgroundColor=none;strokeColor=#A8201A;textShadow=1;" edge="1" parent="1" source="v5CCzjuFt8h26EaklR4Z-57">
          <mxGeometry width="50" height="50" relative="1" as="geometry">
            <mxPoint x="400" y="390" as="sourcePoint" />
            <mxPoint x="680" y="350" as="targetPoint" />
          </mxGeometry>
        </mxCell>
      </root>
    </mxGraphModel>
  </diagram>
</mxfile>
